<?xml version="1.0" encoding="UTF-8"?>
<svg width="1018px" height="777px" viewBox="0 0 1018 777" version="1.1" xmlns="http://www.w3.org/2000/svg" xmlns:xlink="http://www.w3.org/1999/xlink">
    <!-- Generator: Sketch 47.1 (45422) - http://www.bohemiancoding.com/sketch -->
    <title>peppermint</title>
    <desc>Created with Sketch.</desc>
    <defs>
        <radialGradient cx="50%" cy="50%" fx="50%" fy="50%" r="50%" id="radialGradient-2">
            <stop stop-color="#FFFFFF" stop-opacity="0" offset="0%"></stop>
            <stop stop-color="#7F7F7F" stop-opacity="0" offset="76.2037628%"></stop>
            <stop stop-color="#003E87" stop-opacity="0.2" offset="100%"></stop>
        </radialGradient>
        <circle id="path-3" cx="200" cy="200" r="200"></circle>
    </defs>
    <g id="Page-1" stroke="none" stroke-width="1" fill="none" fill-rule="evenodd">
        <g id="peppermint">
            <rect id="bg" fill-opacity="0.01" fill="#FFFFFF" x="0" y="0" width="1018" height="777"></rect>
            <g id="wrapper-simpler" transform="translate(508.682970, 388.764317) rotate(-25.000000) translate(-508.682970, -388.764317) ">
                <path stroke-opacity="0.36" stroke="#0076FF" stroke-width="3" d="M711.554998,325.684825 L962.744399,231.956744 L919.056377,321.025463 L972.692102,381.347555 L929.240536,443.759233 L973.887286,518.868167 L710.245943,455.945339 C681.545531,542.838481 600.053026,602.764317 507.003791,602.764317 C415.376764,602.764317 334.850472,544.650394 305.026393,459.658203 L71.8418413,538.951909 L103.435232,471.161675 L44.598779,403.846768 L93.4913595,346.505699 L43.3162461,268.977011 L301.779097,327.914763 C328.443525,237.826395 411.537971,174.764317 507.003791,174.764317 C601.625319,174.764317 684.159532,236.722005 711.554998,325.684825 Z" fill="#0076FF" fill-opacity="0.0553668477" fill-rule="evenodd"></path>
            </g>
            <g id="peppermint-spiral" transform="translate(507.402961, 388.809506) rotate(-25.000000) translate(-507.402961, -388.809506) translate(307.402961, 188.809506)">
                <mask id="mask-4" fill="white">
                    <use xlink:href="#path-3"></use>
                </mask>
                <g id="Oval-3">
                    <use fill="#FFFFFF" xlink:href="#path-3"></use>
                    <use fill="url(#radialGradient-2)" xlink:href="#path-3"></use>
                </g>
                <path d="M212.16056,191.329428 C214.41434,189.370925 216.712407,187.164148 219.033203,184.67773 C240.791014,161.367191 234.818361,102.234374 212.269532,64.734373 C189.720703,27.234372 176.708985,-31.8710939 176.708985,-31.8710939 L284.640623,-15.9804697 C284.640623,-15.9804697 268.29045,30.3572643 265.503904,88.1406257 C262.717359,145.923987 259.509766,159.257811 240.101559,185.095703 C233.482826,193.907135 224.099677,199.223611 214.607353,202.404116 C217.585887,202.612909 220.771293,202.67746 224.170507,202.560348 C256.038642,201.462403 293.628554,155.425884 304.200629,112.964949 C314.772704,70.5040143 347.365906,19.5094644 347.365906,19.5094644 L412.448731,107.065026 C412.448731,107.065026 368.121687,128.269433 325.292295,167.158055 C282.462903,206.046676 270.766355,213.207003 238.772532,217.753477 C227.861758,219.303949 217.467553,216.428377 208.50651,211.965247 C210.465013,214.219028 212.67179,216.517094 215.158208,218.837891 C238.468747,240.595701 297.601563,234.623048 335.101564,212.074219 C372.601565,189.52539 431.707031,176.513672 431.707031,176.513672 L415.816407,284.44531 C415.816407,284.44531 369.478673,268.095137 311.695312,265.308592 C253.91195,262.522046 240.578126,259.314453 214.740235,239.906246 C205.928803,233.287514 200.612326,223.904364 197.431821,214.41204 C197.223028,217.390575 197.158477,220.57598 197.27559,223.975194 C198.373534,255.843329 244.410054,293.433242 286.870988,304.005317 C329.331923,314.577392 380.326473,347.170594 380.326473,347.170594 L292.770912,412.253419 C292.770912,412.253419 271.566504,367.926375 232.677883,325.096983 C193.789261,282.267591 186.628934,270.571043 182.082461,238.57722 C180.531988,227.666445 183.40756,217.272241 187.87069,208.311197 C185.616909,210.2697 183.318843,212.476477 180.998047,214.962895 C159.240236,238.273434 165.212889,297.406251 187.761718,334.906252 C210.310547,372.406253 223.322266,431.511719 223.322266,431.511719 L115.390627,415.621095 C115.390627,415.621095 131.7408,369.283361 134.527346,311.499999 C137.313891,253.716638 140.521484,240.382814 159.929691,214.544922 C166.548424,205.73349 175.931573,200.417014 185.423897,197.236509 C182.445363,197.027716 179.259957,196.963165 175.860743,197.080277 C143.992608,198.178222 106.402696,244.214741 95.8306208,286.675676 C85.2585456,329.136611 52.665344,380.131161 52.665344,380.131161 L-12.4174813,292.575599 C-12.4174813,292.575599 31.909563,271.371192 74.7389549,232.48257 C117.568347,193.593949 129.264895,186.433622 161.258718,181.887148 C172.169492,180.336676 182.563697,183.212248 191.52474,187.675378 C189.566237,185.421597 187.35946,183.123531 184.873042,180.802734 C161.562503,159.044924 102.429687,165.017577 64.9296855,187.566406 C27.4296845,210.115235 -31.6757814,223.126953 -31.6757814,223.126953 L-15.7851572,115.195315 C-15.7851572,115.195315 30.5525768,131.545488 88.3359382,134.332033 C146.1193,137.118579 159.453124,140.326172 185.291015,159.734379 C194.102447,166.353112 199.418924,175.736261 202.599429,185.228585 C202.808221,182.25005 202.872773,179.064645 202.75566,175.665431 C201.657716,143.797296 155.621196,106.207383 113.160262,95.6353083 C70.6993267,85.0632331 19.7047768,52.4700315 19.7047768,52.4700315 L107.260338,-12.6127938 C107.260338,-12.6127938 128.464746,31.7142505 167.353367,74.5436425 C206.241989,117.373034 213.402315,129.069583 217.948789,161.063405 C219.499262,171.97418 216.62369,182.368385 212.16056,191.329428 Z M200.132319,199.911554 C200.142452,199.875192 200.152565,199.838779 200.162658,199.802314 C200.144111,199.769438 200.125514,199.736539 200.106866,199.703618 C200.070505,199.693486 200.034092,199.683373 199.997627,199.67328 C199.964751,199.691827 199.931852,199.710424 199.898931,199.729072 C199.888798,199.765433 199.878685,199.801846 199.868592,199.838311 C199.887139,199.871187 199.905736,199.904086 199.924384,199.937007 C199.960745,199.947139 199.997158,199.957252 200.033623,199.967345 C200.066499,199.948799 200.099398,199.930201 200.132319,199.911554 Z" id="Path-13" fill="#FF4063" mask="url(#mask-4)"></path>
            </g>
        </g>
    </g>
</svg>