<?xml version="1.0" encoding="UTF-8"?>
<svg width="255px" height="195px" viewBox="0 0 255 195" version="1.1" xmlns="http://www.w3.org/2000/svg" xmlns:xlink="http://www.w3.org/1999/xlink">
    <!-- Generator: Sketch 47.1 (45422) - http://www.bohemiancoding.com/sketch -->
    <title>peppermint</title>
    <desc>Created with Sketch.</desc>
    <defs>
        <path d="M177.64597,81.9120518 L239.934541,58.6698758 L229.316507,80.3173362 L242.69639,95.3651897 L231.864359,110.923783 L242.69639,129.146438 L177.312365,113.541345 C170.416664,134.881278 150.386301,150.316079 126.750948,150.316079 C103.448503,150.316079 83.6502101,135.31302 76.4887037,114.439536 L18.6714583,134.100116 L26.30186,117.727492 L11.645095,100.958657 L23.8394272,86.6571816 L11.645095,67.8149606 L75.7056208,82.4227982 C82.1040592,60.2679166 102.535432,44.0660793 126.750948,44.0660793 C150.779992,44.0660793 171.082949,60.0193533 177.64597,81.9120518 L177.64597,81.9120518 Z" id="path-1"></path>
        <radialGradient cx="50%" cy="50%" fx="50%" fy="50%" r="50%" id="radialGradient-2">
            <stop stop-color="#FFFFFF" stop-opacity="0" offset="0%"></stop>
            <stop stop-color="#7F7F7F" stop-opacity="0" offset="76.2037628%"></stop>
            <stop stop-color="#003E87" stop-opacity="0.2" offset="100%"></stop>
        </radialGradient>
        <circle id="path-3" cx="50" cy="50" r="50"></circle>
    </defs>
    <g id="Page-1" stroke="none" stroke-width="1" fill="none" fill-rule="evenodd">
        <g id="peppermint">
            <rect id="bg" fill-opacity="0.01" fill="#FFFFFF" x="0" y="0" width="254.5" height="194.25"></rect>
            <g id="wrapper-simpler" transform="translate(127.170742, 97.191079) rotate(-25.000000) translate(-127.170742, -97.191079) ">
                <use fill-opacity="0.0553668477" fill="#0076FF" fill-rule="evenodd" xlink:href="#path-1"></use>
                <path stroke-opacity="0.36" stroke="#0076FF" stroke-width="2" d="M178.28726,80.6054149 L241.938697,56.8547033 L230.510073,80.1547482 L243.967418,95.2897202 L233.053093,110.966516 L244.764208,130.668048 L177.971904,114.726843 C170.554426,136.409679 150.090134,151.316079 126.750948,151.316079 C103.786712,151.316079 83.5795204,136.883255 75.8751441,115.70441 L16.7754637,135.801079 L25.1203878,117.895297 L10.3240276,100.966751 L22.5951944,86.5751635 L9.4690058,66.2930732 L75.0150257,81.2396508 C81.9360213,58.7539393 102.804546,43.0660793 126.750948,43.0660793 C150.45803,43.0660793 171.164895,58.4434774 178.28726,80.6054149 Z"></path>
            </g>
            <g id="peppermint-spiral" transform="translate(126.850740, 97.202377) rotate(-25.000000) translate(-126.850740, -97.202377) translate(76.850740, 47.202377)">
                <mask id="mask-4" fill="white">
                    <use xlink:href="#path-3"></use>
                </mask>
                <g id="Oval-3">
                    <use fill="#FFFFFF" xlink:href="#path-3"></use>
                    <use fill="url(#radialGradient-2)" xlink:href="#path-3"></use>
                </g>
                <path d="M53.0401399,47.832357 C53.6035851,47.3427312 54.1781017,46.7910369 54.7583008,46.1694324 C60.1977534,40.3417977 58.7045902,25.5585935 53.0673829,16.1835933 C47.4301757,6.80859301 44.1772461,-7.96777347 44.1772461,-7.96777347 L71.1601557,-3.99511743 C71.1601557,-3.99511743 67.0726124,7.58931607 66.375976,22.0351564 C65.6793397,36.4809968 64.8774414,39.8144528 60.0253897,46.2739257 C58.3707065,48.4767837 56.0249192,49.8059028 53.6518382,50.6010291 C54.3964718,50.6532273 55.1928232,50.6693651 56.0426267,50.640087 C64.0096604,50.3656008 73.4071385,38.856471 76.0501573,28.2412373 C78.6931761,17.6260036 86.8414765,4.87736609 86.8414765,4.87736609 L103.112183,26.7662565 C103.112183,26.7662565 92.0304218,32.0673584 81.3230738,41.7895137 C70.6157258,51.5116691 67.6915888,53.3017508 59.693133,54.4383692 C56.9654394,54.8259873 54.3668883,54.1070944 52.1266274,52.9913118 C52.6162532,53.554757 53.1679475,54.1292736 53.789552,54.7094727 C59.6171866,60.1489253 74.4003909,58.655762 83.7753911,53.0185548 C93.1503914,47.3813475 107.926758,44.128418 107.926758,44.128418 L103.954102,71.1113276 C103.954102,71.1113276 92.3696683,67.0237843 77.923828,66.3271479 C63.4779876,65.6305115 60.1445316,64.8286133 53.6850587,59.9765616 C51.4822006,58.3218784 50.1530816,55.9760911 49.3579553,53.6030101 C49.3057571,54.3476437 49.2896193,55.143995 49.3188974,55.9937985 C49.5933836,63.9608323 61.1025134,73.3583104 71.7177471,76.0013292 C82.3329808,78.644348 95.0816183,86.7926484 95.0816183,86.7926484 L73.1927279,103.063355 C73.1927279,103.063355 67.891626,91.9815936 58.1694707,81.2742456 C48.4473153,70.5668977 46.6572336,67.6427606 45.5206152,59.6443049 C45.132997,56.9166113 45.85189,54.3180601 46.9676725,52.0777993 C46.4042274,52.567425 45.8297108,53.1191193 45.2495117,53.7407239 C39.8100591,59.5683585 41.3032224,74.3515627 46.9404296,83.726563 C52.5776368,93.1015632 55.8305664,107.87793 55.8305664,107.87793 L28.8476568,103.905274 C28.8476568,103.905274 32.9352001,92.3208402 33.6318365,77.8749998 C34.3284729,63.4291595 35.1303711,60.0957035 39.9824228,53.6362306 C41.637106,51.4333725 43.9828933,50.1042535 46.3559743,49.3091272 C45.6113407,49.256929 44.8149893,49.2407912 43.9651859,49.2700693 C35.9981521,49.5445554 26.600674,61.0536853 23.9576552,71.668919 C21.3146364,82.2841527 13.166336,95.0327902 13.166336,95.0327902 L-3.10437033,73.1438998 C-3.10437033,73.1438998 7.97739075,67.8427979 18.6847387,58.1206425 C29.3920867,48.3984872 32.3162238,46.6084055 40.3146795,45.4717871 C43.0423731,45.0841689 45.6409242,45.8030619 47.8811851,46.9188444 C47.3915593,46.3553992 46.839865,45.7808827 46.2182605,45.2006836 C40.3906259,39.761231 25.6074216,41.2543943 16.2324214,46.8916015 C6.85742113,52.5288087 -7.91894535,55.7817383 -7.91894535,55.7817383 L-3.9462893,28.7988287 C-3.9462893,28.7988287 7.63814419,32.886372 22.0839845,33.5830084 C36.5298249,34.2796448 39.8632809,35.081543 46.3227538,39.9335947 C48.5256118,41.5882779 49.8547309,43.9340651 50.6498572,46.3071461 C50.7020554,45.5625125 50.7181932,44.7661612 50.6889151,43.9163577 C50.4144289,35.9493239 38.9052991,26.5518459 28.2900654,23.9088271 C17.6748317,21.2658083 4.92619419,13.1175079 4.92619419,13.1175079 L26.8150846,-3.15319845 C26.8150846,-3.15319845 32.1161865,7.92856263 41.8383418,18.6359106 C51.5604972,29.3432586 53.3505789,32.2673956 54.4871973,40.2658514 C54.8748154,42.993545 54.1559225,45.5920962 53.0401399,47.832357 Z M50.0330799,49.9778884 C50.035613,49.9687981 50.0381412,49.9596948 50.0406644,49.9505785 C50.0360277,49.9423595 50.0313785,49.9341348 50.0267165,49.9259045 C50.0176262,49.9233714 50.0085229,49.9208432 49.9994067,49.91832 C49.9911877,49.9229566 49.982963,49.9276059 49.9747326,49.9322679 C49.9721995,49.9413582 49.9696713,49.9504615 49.9671481,49.9595777 C49.9717847,49.9677967 49.976434,49.9760214 49.981096,49.9842517 C49.9901863,49.9867849 49.9992896,49.9893131 50.0084058,49.9918363 C50.0166248,49.9871996 50.0248495,49.9825504 50.0330799,49.9778884 Z" id="Path-13" fill="#FF4063" mask="url(#mask-4)"></path>
            </g>
        </g>
    </g>
</svg>